# xmcd
#
# Track frame offsets:
#	150
#	16568
#	28128
#	47098
#	62668
#	75663
#	90418
#	105023
#	118790
#	131725
#	148913
#	162880
#
# Disc length: 2381 seconds
#
# Revision: 1
# Processed by: cddbd v1.5.2PL0 Copyright (c) Steve Scherf et al.
# Submitted via: EZCDAudioConverter 8.2.2.1
#
DISCID=90094b0c
DTITLE=JOÃO MINEIRO and MARCIANO - DISCO DE OURO [CD  M-0011) MAGAZINE
DYEAR=1989
DGENRE=SERTANEJO
TTITLE0=SE EU NÃO PUDER TE ESQUECER (BY GILMAR SINISTRO)
TTITLE1=WHISKY COM GELO (BY GILMAR SINISTRO)
TTITLE2=DISTANTE DOS OLHOS (LONTANO DAGLI OCCHI) (BY GILMAR SINISTRO)
TTITLE3=AS PAREDES AZUIS (BY GILMAR SINISTRO)
TTITLE4=AMOR E AMIZADE (DIA SIM, DIA NÃO) (BY GILMAR SINISTRO)
TTITLE5=TE AMO, MAS ADEUS (BY GILMAR SINISTRO)
TTITLE6=EX-MULHER (BY GILMAR SINISTRO)
TTITLE7=ALINE (BY GILMAR SINISTRO)
TTITLE8=TELEFONE MAIS (BY GILMAR SINISTRO)
TTITLE9=JÁ FUI AMANDO (BY GILMAR SINISTRO)
TTITLE10=EU PRECISO DE UM AMIGO (BY GILMAR SINISTRO)
TTITLE11=A MINHA CABEÇA MUDOU (BY GILMAR SINISTRO)
EXTD=
EXTT0=
EXTT1=
EXTT2=
EXTT3=
EXTT4=
EXTT5=
EXTT6=
EXTT7=
EXTT8=
EXTT9=
EXTT10=
EXTT11=
PLAYORDER=
